<svg xmlns="http://www.w3.org/2000/svg" data-name="Layer 1" viewBox="0 0 512 512" id="lock-certificate"><path fill="#f4b844" d="M381,269H327a7.805,7.805,0,0,0-7.86,6.311A7.7,7.7,0,0,0,314,282.55v60a8,8,0,0,0,16,0V285h51a8,8,0,0,0,0-16Z" data-name="<Path>"></path><g data-name="<Group>"><g data-name="<Group>"><g data-name="<Group>"><path fill="#00efd1" d="M423.15,73.29c29.38,29.37,45.95,60.34,37.14,69.15l-5.25,5.58L341.51,261.55c6.17-10.31-10.28-39.76-38.29-67.77-29.37-29.37-60.32-46.04-69.13-37.23l-.41-.41L348.27,41.25l5.47-5.47C362.55,26.97,393.78,43.92,423.15,73.29Z" data-name="<Path>"></path></g><g data-name="<Group>"><path fill="#00efd1" d="M260.8,236.2c28.01,28.01,44.46,57.46,38.29,67.77l-36.12,36.12v-8.93a49.648,49.648,0,0,0-15.91-36.42,53.141,53.141,0,0,0-37.27-14.49c-29.33,0-53.19,22.84-53.19,50.91v34.45h-1.74c-10.65,0-19.28,8.21-19.28,18.32v8.25h-.06c-4.42-5.3-9.34-10.69-14.68-16.02-29.37-29.37-60.33-46.04-69.14-37.23l-.17-.17L191.31,198.62l.35.35C200.47,190.16,231.43,206.83,260.8,236.2Z" data-name="<Path>"></path></g><g data-name="<Group>"><path fill="#00acea" d="M135.58,443.2V383.93c0-10.11,8.63-18.32,19.28-18.32H264.71c10.66,0,19.29,8.2,19.29,18.32v76.3c0,10.12-8.63,18.32-19.29,18.32H154.86c-10.65,0-19.28-8.2-19.28-18.32Zm74.21-6.55c6.65,0,12.05-5.12,12.05-11.45s-5.4-11.45-12.05-11.45-12.06,5.13-12.06,11.45S203.13,436.65,209.79,436.65Z" data-name="<Compound Path>"></path></g><g data-name="<Group>"><path fill="#d4e1f4" d="M262.97,365.43v.18H243.69V332.17a31.944,31.944,0,0,0-10.21-23.41,33.842,33.842,0,0,0-23.33-9.18h-.28c-18.77,0-33.98,14.62-33.98,32.59v33.44H156.6V331.16c0-28.07,23.86-50.91,53.19-50.91a53.141,53.141,0,0,1,37.27,14.49,49.648,49.648,0,0,1,15.91,36.42v34.27Z" data-name="<Path>"></path></g><g data-name="<Group>"><path fill="#00efd1" d="M243.69,332.17v27.21l-6.24,6.23H175.89V332.17c0-17.97,15.21-32.59,33.98-32.59h.28a33.842,33.842,0,0,1,23.33,9.18A31.944,31.944,0,0,1,243.69,332.17Z" data-name="<Path>"></path></g></g><g data-name="<Group>"><g data-name="<Group>"><path fill="#fedb41" d="M234.09 156.55l-.41-.41-42.37 42.48.35.35c8.81-8.81 39.77 7.86 69.14 37.23 28.01 28.01 44.46 57.46 38.29 67.77l42.42-42.42c6.17-10.31-10.28-39.76-38.29-67.77C273.85 164.41 242.9 147.74 234.09 156.55zM120.84 376.07C91.47 346.7 60.51 330.075 51.7 338.885s8.07 39.792 37.44 69.163C105.58 424.488 122 436.97 136 443.2V392h-.48C131.1 387 126.18 381.4 120.84 376.07z" data-name="<Path>"></path></g><g data-name="<Group>"><path fill="#f4b844" d="M209.79,405.75A19.332,19.332,0,0,0,202,443.026v9.684a8,8,0,1,0,16,0v-9.686A19.5,19.5,0,0,0,229.945,425.2C229.945,414.476,220.846,405.75,209.79,405.75Z" data-name="<Compound Path>"></path></g></g></g></svg>